<?xml version="1.0" encoding="utf-8"?>
<!-- Generator: Adobe Illustrator 25.4.1, SVG Export Plug-In . SVG Version: 6.00 Build 0)  -->
<svg version="1.1" id="Layer_1" xmlns="http://www.w3.org/2000/svg" xmlns:xlink="http://www.w3.org/1999/xlink" x="0px" y="0px"
	 viewBox="0 0 640 386" style="enable-background:new 0 0 640 386;" xml:space="preserve">
<style type="text/css">
	.st0{fill:#EE3457;}
	.st1{font-family:'CascadiaCode-Regular';}
	.st2{font-size:12px;}
	.st3{fill:none;stroke:#41414C;stroke-width:0.5;stroke-miterlimit:10;}
	.st4{font-size:7.755px;}
	.st5{fill:none;stroke:#41414C;stroke-width:0.3377;stroke-miterlimit:10;}
</style>
<image style="overflow:visible;" width="640" height="386" xlink:href="Traces.png" >
</image>
<g>
	<text transform="matrix(1 0 0 1 132.3394 312.3672)" class="st0 st1 st2">x1, y1</text>
</g>
<g>
	<text transform="matrix(1 0 0 1 223.0908 312.3672)" class="st0 st1 st2">x2,y1</text>
</g>
<g>
	<text transform="matrix(1 0 0 1 310.3267 312.3672)" class="st0 st1 st2">x3,y1</text>
</g>
<g>
	<text transform="matrix(1 0 0 1 132.3394 220.0067)" class="st0 st1 st2">x1, y2</text>
</g>
<g>
	<text transform="matrix(1 0 0 1 223.0908 220.0067)" class="st0 st1 st2">x2,y2</text>
</g>
<g>
	<text transform="matrix(1 0 0 1 310.3267 220.0067)" class="st0 st1 st2">x3,y2</text>
</g>
<g>
	<text transform="matrix(1 0 0 1 132.3394 131.7035)" class="st0 st1 st2">x1, y3</text>
</g>
<g>
	<text transform="matrix(1 0 0 1 223.0908 131.7035)" class="st0 st1 st2">x2,y3</text>
</g>
<g>
	<text transform="matrix(1 0 0 1 310.3267 131.7035)" class="st0 st1 st2">x3,y3</text>
</g>
<g>
	<text transform="matrix(1 0 0 1 390.6675 309.1829)" class="st0 st1 st2">x1,y1</text>
</g>
<g>
	<text transform="matrix(1 0 0 1 390.6679 238.4)" class="st0 st1 st2">x1,y2</text>
</g>
<rect x="460.1" y="222.5" transform="matrix(-1.836970e-16 1 -1 -1.836970e-16 751.6592 -229.0234)" class="st3" width="60.6" height="77.6"/>
<rect x="460.1" y="144" transform="matrix(-1.836970e-16 1 -1 -1.836970e-16 673.1072 -307.5754)" class="st3" width="60.6" height="77.6"/>
<g>
	<text transform="matrix(1 0 0 1 480.0583 170.1348)" class="st0 st1 st2">X2, Y1</text>
</g>
<rect x="516" y="262.7" transform="matrix(-1.836970e-16 1 -1 -1.836970e-16 851.1289 -284.9385)" class="st3" width="104.1" height="40.7"/>
<rect x="537.8" y="162.5" transform="matrix(-1.836970e-16 1 -1 -1.836970e-16 750.8833 -385.1841)" class="st3" width="60.4" height="40.7"/>
<g>
	<text transform="matrix(1 0 0 1 550.4558 283.095)" class="st0 st1 st2">X2,Y2</text>
</g>
<g>
	<text transform="matrix(1 0 0 1 546.9401 167.2927)" class="st0 st1 st2">X2, Y2</text>
</g>
<g>
	<text transform="matrix(1 0 0 1 469.2479 283.0956)" class="st0 st1 st2">x1, y1</text>
</g>
<g>
	<text transform="matrix(1 0 0 1 456.7114 320.3788)" class="st0 st1 st4">x1, y1</text>
</g>
<g>
	<text transform="matrix(1 0 0 1 502.4243 320.3786)" class="st0 st1 st4">x1, y2</text>
</g>
<rect x="118.7" y="91.8" transform="matrix(-1.836970e-16 1 -1 -1.836970e-16 279.8711 -26.9951)" class="st3" width="69.4" height="69.2"/>
<rect x="206" y="91.8" transform="matrix(-1.836970e-16 1 -1 -1.836970e-16 367.1069 -114.231)" class="st3" width="69.4" height="69.2"/>
<rect x="293.2" y="91.8" transform="matrix(-1.836970e-16 1 -1 -1.836970e-16 454.3428 -201.4668)" class="st3" width="69.4" height="69.2"/>
<rect x="118.7" y="179.2" transform="matrix(-1.836970e-16 1 -1 -1.836970e-16 367.2646 60.3984)" class="st3" width="69.4" height="69.2"/>
<rect x="206" y="179.2" transform="matrix(-1.836970e-16 1 -1 -1.836970e-16 454.5005 -26.8374)" class="st3" width="69.4" height="69.2"/>
<rect x="293.2" y="179.2" transform="matrix(-1.836970e-16 1 -1 -1.836970e-16 541.7363 -114.0732)" class="st3" width="69.4" height="69.2"/>
<rect x="118.7" y="266.6" transform="matrix(-1.836970e-16 1 -1 -1.836970e-16 454.6582 147.792)" class="st3" width="69.4" height="69.2"/>
<rect x="206" y="266.6" transform="matrix(-1.836970e-16 1 -1 -1.836970e-16 541.894 60.5562)" class="st3" width="69.4" height="69.2"/>
<rect x="293.2" y="266.6" transform="matrix(-1.836970e-16 1 -1 -1.836970e-16 629.1299 -26.6797)" class="st3" width="69.4" height="69.2"/>
<rect x="372.2" y="274.8" transform="matrix(-1.836970e-16 1 -1 -1.836970e-16 708.1445 -105.6943)" class="st3" width="69.4" height="52.8"/>
<rect x="357.4" y="172.6" transform="matrix(-1.836970e-16 1 -1 -1.836970e-16 605.9104 -207.9285)" class="st3" width="99.1" height="52.8"/>
<rect x="387.1" y="85.2" transform="matrix(-1.836970e-16 1 -1 -1.836970e-16 518.5168 -295.322)" class="st3" width="39.7" height="52.8"/>
<rect x="455.8" y="311" transform="matrix(-1.836970e-16 1 -1 -1.836970e-16 795.1011 -145.5845)" class="st5" width="29.1" height="27.5"/>
<rect x="501.5" y="311" transform="matrix(-1.836970e-16 1 -1 -1.836970e-16 840.8149 -191.2983)" class="st5" width="29.1" height="27.5"/>
</svg>
